# xmcd
#
# Track frame offsets: 
#        150
#        19243
#        43851
#        61122
#        76514
#        96822
#        113152
#        135105
#        146984
#        164935
#
# Disc length: 2426 seconds
#
# Revision: 3
# Processed by: cddbd v1.5.2PL0 Copyright (c) Steve Scherf et al.
# Submitted via: ExactAudioCopy v0.99pb4
#
DISCID=8109780a
DTITLE=Johnny Winter - Guitar Slinger
DYEAR=1984
DGENRE=Blues
TTITLE0=It's My Life, Baby
TTITLE1=Don't Take Advantage Of Me
TTITLE2=Iodine In My Coffee
TTITLE3=Trick Bag
TTITLE4=Mad Dog
TTITLE5=Boot Hill
TTITLE6=I Smell Trouble
TTITLE7=Lights Out
TTITLE8=Kiss Tomorrow Goodbye
TTITLE9=My Soul
EXTD=
EXTT0=
EXTT1=
EXTT2=
EXTT3=
EXTT4=
EXTT5=
EXTT6=
EXTT7=
EXTT8=
EXTT9=
PLAYORDER=
